<mxfile host="Electron" modified="2023-04-23T13:27:03.177Z" agent="Mozilla/5.0 (Windows NT 10.0; Win64; x64) AppleWebKit/537.36 (KHTML, like Gecko) draw.io/21.1.2 Chrome/106.0.5249.199 Electron/21.4.3 Safari/537.36" etag="fIWyZfYEiX1IFAza6Dqy" version="21.1.2" type="device">
  <diagram name="Страница 1" id="S9rP91DNm84Bj2IDs0w1">
    <mxGraphModel dx="1185" dy="688" grid="1" gridSize="10" guides="1" tooltips="1" connect="1" arrows="1" fold="1" page="1" pageScale="1" pageWidth="827" pageHeight="1169" math="0" shadow="0">
      <root>
        <mxCell id="0" />
        <mxCell id="1" parent="0" />
        <mxCell id="GXpw49F81pgw3P38Ty1G-3" value="" style="edgeStyle=orthogonalEdgeStyle;rounded=0;orthogonalLoop=1;jettySize=auto;html=1;" edge="1" parent="1" source="GXpw49F81pgw3P38Ty1G-1" target="GXpw49F81pgw3P38Ty1G-2">
          <mxGeometry relative="1" as="geometry" />
        </mxCell>
        <mxCell id="GXpw49F81pgw3P38Ty1G-1" value="Start" style="ellipse;whiteSpace=wrap;html=1;" vertex="1" parent="1">
          <mxGeometry x="330" y="30" width="120" height="80" as="geometry" />
        </mxCell>
        <mxCell id="GXpw49F81pgw3P38Ty1G-8" style="edgeStyle=orthogonalEdgeStyle;rounded=0;orthogonalLoop=1;jettySize=auto;html=1;entryX=0.5;entryY=0;entryDx=0;entryDy=0;" edge="1" parent="1" source="GXpw49F81pgw3P38Ty1G-2" target="GXpw49F81pgw3P38Ty1G-4">
          <mxGeometry relative="1" as="geometry" />
        </mxCell>
        <mxCell id="GXpw49F81pgw3P38Ty1G-2" value="array[N]&lt;br&gt;N" style="shape=parallelogram;perimeter=parallelogramPerimeter;whiteSpace=wrap;html=1;fixedSize=1;" vertex="1" parent="1">
          <mxGeometry x="330" y="150" width="120" height="60" as="geometry" />
        </mxCell>
        <mxCell id="GXpw49F81pgw3P38Ty1G-6" value="" style="edgeStyle=orthogonalEdgeStyle;rounded=0;orthogonalLoop=1;jettySize=auto;html=1;exitX=1;exitY=0.5;exitDx=0;exitDy=0;exitPerimeter=0;" edge="1" parent="1" source="GXpw49F81pgw3P38Ty1G-4" target="GXpw49F81pgw3P38Ty1G-5">
          <mxGeometry relative="1" as="geometry">
            <Array as="points" />
          </mxGeometry>
        </mxCell>
        <mxCell id="GXpw49F81pgw3P38Ty1G-7" value="Y" style="edgeLabel;html=1;align=center;verticalAlign=middle;resizable=0;points=[];" vertex="1" connectable="0" parent="GXpw49F81pgw3P38Ty1G-6">
          <mxGeometry x="0.2874" relative="1" as="geometry">
            <mxPoint x="-11" as="offset" />
          </mxGeometry>
        </mxCell>
        <mxCell id="GXpw49F81pgw3P38Ty1G-12" style="edgeStyle=orthogonalEdgeStyle;rounded=0;orthogonalLoop=1;jettySize=auto;html=1;" edge="1" parent="1" source="GXpw49F81pgw3P38Ty1G-4" target="GXpw49F81pgw3P38Ty1G-11">
          <mxGeometry relative="1" as="geometry" />
        </mxCell>
        <mxCell id="GXpw49F81pgw3P38Ty1G-13" value="N" style="edgeLabel;html=1;align=center;verticalAlign=middle;resizable=0;points=[];" vertex="1" connectable="0" parent="GXpw49F81pgw3P38Ty1G-12">
          <mxGeometry x="-0.2476" y="2" relative="1" as="geometry">
            <mxPoint x="-2" as="offset" />
          </mxGeometry>
        </mxCell>
        <mxCell id="GXpw49F81pgw3P38Ty1G-4" value="i=0&lt;br&gt;N&amp;gt;i" style="rhombus;whiteSpace=wrap;html=1;" vertex="1" parent="1">
          <mxGeometry x="350" y="250" width="80" height="80" as="geometry" />
        </mxCell>
        <mxCell id="GXpw49F81pgw3P38Ty1G-10" style="edgeStyle=orthogonalEdgeStyle;rounded=0;orthogonalLoop=1;jettySize=auto;html=1;" edge="1" parent="1" source="GXpw49F81pgw3P38Ty1G-5">
          <mxGeometry relative="1" as="geometry">
            <mxPoint x="390" y="230" as="targetPoint" />
            <Array as="points">
              <mxPoint x="570" y="230" />
            </Array>
          </mxGeometry>
        </mxCell>
        <mxCell id="GXpw49F81pgw3P38Ty1G-5" value="array[i] = введенный пользователем текст" style="rounded=0;whiteSpace=wrap;html=1;" vertex="1" parent="1">
          <mxGeometry x="510" y="260" width="120" height="60" as="geometry" />
        </mxCell>
        <mxCell id="GXpw49F81pgw3P38Ty1G-15" style="edgeStyle=orthogonalEdgeStyle;rounded=0;orthogonalLoop=1;jettySize=auto;html=1;" edge="1" parent="1" source="GXpw49F81pgw3P38Ty1G-11" target="GXpw49F81pgw3P38Ty1G-14">
          <mxGeometry relative="1" as="geometry" />
        </mxCell>
        <mxCell id="GXpw49F81pgw3P38Ty1G-11" value="ARRAY[]&lt;br&gt;n=0" style="shape=parallelogram;perimeter=parallelogramPerimeter;whiteSpace=wrap;html=1;fixedSize=1;" vertex="1" parent="1">
          <mxGeometry x="330" y="390" width="120" height="60" as="geometry" />
        </mxCell>
        <mxCell id="GXpw49F81pgw3P38Ty1G-19" value="Y" style="edgeStyle=orthogonalEdgeStyle;rounded=0;orthogonalLoop=1;jettySize=auto;html=1;" edge="1" parent="1" source="GXpw49F81pgw3P38Ty1G-14" target="GXpw49F81pgw3P38Ty1G-18">
          <mxGeometry relative="1" as="geometry">
            <Array as="points">
              <mxPoint x="530" y="550" />
              <mxPoint x="530" y="550" />
            </Array>
          </mxGeometry>
        </mxCell>
        <mxCell id="GXpw49F81pgw3P38Ty1G-22" value="N" style="edgeStyle=orthogonalEdgeStyle;rounded=0;orthogonalLoop=1;jettySize=auto;html=1;" edge="1" parent="1" source="GXpw49F81pgw3P38Ty1G-14" target="GXpw49F81pgw3P38Ty1G-21">
          <mxGeometry x="-0.1429" relative="1" as="geometry">
            <mxPoint as="offset" />
          </mxGeometry>
        </mxCell>
        <mxCell id="GXpw49F81pgw3P38Ty1G-25" style="edgeStyle=orthogonalEdgeStyle;rounded=0;orthogonalLoop=1;jettySize=auto;html=1;entryX=0.5;entryY=0;entryDx=0;entryDy=0;" edge="1" parent="1" source="GXpw49F81pgw3P38Ty1G-14" target="GXpw49F81pgw3P38Ty1G-24">
          <mxGeometry relative="1" as="geometry" />
        </mxCell>
        <mxCell id="GXpw49F81pgw3P38Ty1G-14" value="i=0&lt;br&gt;length.array[i]&amp;lt;=3" style="rhombus;whiteSpace=wrap;html=1;" vertex="1" parent="1">
          <mxGeometry x="290" y="510" width="200" height="80" as="geometry" />
        </mxCell>
        <mxCell id="GXpw49F81pgw3P38Ty1G-20" style="edgeStyle=orthogonalEdgeStyle;rounded=0;orthogonalLoop=1;jettySize=auto;html=1;" edge="1" parent="1" source="GXpw49F81pgw3P38Ty1G-18">
          <mxGeometry relative="1" as="geometry">
            <mxPoint x="390" y="470" as="targetPoint" />
            <Array as="points">
              <mxPoint x="620" y="470" />
            </Array>
          </mxGeometry>
        </mxCell>
        <mxCell id="GXpw49F81pgw3P38Ty1G-18" value="ARRAY[n] = array[i]&lt;br&gt;n++&lt;br&gt;i++" style="rounded=0;whiteSpace=wrap;html=1;" vertex="1" parent="1">
          <mxGeometry x="560" y="520" width="120" height="60" as="geometry" />
        </mxCell>
        <mxCell id="GXpw49F81pgw3P38Ty1G-23" style="edgeStyle=orthogonalEdgeStyle;rounded=0;orthogonalLoop=1;jettySize=auto;html=1;" edge="1" parent="1" source="GXpw49F81pgw3P38Ty1G-21">
          <mxGeometry relative="1" as="geometry">
            <mxPoint x="390" y="470" as="targetPoint" />
            <Array as="points">
              <mxPoint x="160" y="470" />
            </Array>
          </mxGeometry>
        </mxCell>
        <mxCell id="GXpw49F81pgw3P38Ty1G-21" value="i++" style="rounded=0;whiteSpace=wrap;html=1;" vertex="1" parent="1">
          <mxGeometry x="100" y="520" width="120" height="60" as="geometry" />
        </mxCell>
        <mxCell id="GXpw49F81pgw3P38Ty1G-24" value="print ARRAY[]" style="shape=parallelogram;perimeter=parallelogramPerimeter;whiteSpace=wrap;html=1;fixedSize=1;" vertex="1" parent="1">
          <mxGeometry x="330" y="640" width="120" height="60" as="geometry" />
        </mxCell>
      </root>
    </mxGraphModel>
  </diagram>
</mxfile>
